<svg xmlns="http://www.w3.org/2000/svg" aria-hidden="true" class="svg-icon ci-yql-close" width="37" height="37" viewBox="0 0 1024 1024" style="fill: rgb(217, 56, 56);"><path d="M856.84 903.418c-12.9 0-25.805-4.938-35.627-14.765L139.132 206.624c-19.71-19.706-19.71-51.557 0-71.262 19.706-19.706 51.555-19.706 71.257 0l682.035 682.027c19.704 19.706 19.704 51.559 0 71.265-9.832 9.877-22.732 14.764-35.584 14.764z"></path><path d="M174.759 903.418c-12.901 0-25.799-4.938-35.627-14.765-19.703-19.706-19.703-51.559 0-71.265l682.081-682.027c19.7-19.706 51.553-19.706 71.259 0 19.703 19.705 19.703 51.556 0 71.262l-682.083 682.03c-9.825 9.878-22.725 14.765-35.63 14.765z"></path></svg>