<!-- <svg xmlns="http://www.w3.org/2000/svg" 
aria-hidden="true" 
class="svg-icon mb-icon-flip mb-widget-gesture" 
width="50" height="50" viewBox="0 -64 1024 1024" 
style="fill: rgb(16, 16, 16);"
transform="scale(-1,1)"
>
<path d="M535.893 459.947v215.040c0 23.893-17.067 75.093-71.68 75.093-51.2 0-68.267-44.373-68.267-75.093v-378.88l-58.027 85.333-3.413 3.413c-17.067 13.653-58.027 34.133-95.573 10.24s-34.133-71.68-27.307-92.16l191.147-290.133h416.427v406.187l-283.307 40.96zM788.48 46.933h-365.227l-177.493 269.653c-3.413 6.827-6.827 34.133 13.653 51.2 23.893 13.653 47.787 0 51.2-6.827l85.333-122.88v-34.133h34.133v471.040c0 3.413 0 40.96 34.133 40.96s37.547-34.133 37.547-40.96v-242.347l283.307-44.373v-341.333h3.413zM341.333 521.387l20.48 27.307c-44.373 30.72-68.267 81.92-68.267 133.12 0 92.16 75.093 167.253 170.667 167.253s170.667-75.093 170.667-167.253c0-51.2-23.893-102.4-68.267-133.12l20.48-27.307c51.2 37.547 81.92 95.573 81.92 160.427 0 112.64-92.16 201.387-204.8 201.387s-204.8-88.747-204.8-201.387c0-64.853 30.72-122.88 81.92-160.427z"></path></svg> -->

 
 <svg xmlns="http://www.w3.org/2000/svg"
  aria-hidden="true" class="svg-icon mb-icon-flip mb-widget-gesture" 
  width="30" height="30"
   viewBox="0 -64 1024 1024"
	style="fill: rgb(16, 16, 16);"><path d="M535.893 459.947v215.040c0 23.893-17.067 75.093-71.68 75.093-51.2 0-68.267-44.373-68.267-75.093v-378.88l-58.027 85.333-3.413 3.413c-17.067 13.653-58.027 34.133-95.573 10.24s-34.133-71.68-27.307-92.16l191.147-290.133h416.427v406.187l-283.307 40.96zM788.48 46.933h-365.227l-177.493 269.653c-3.413 6.827-6.827 34.133 13.653 51.2 23.893 13.653 47.787 0 51.2-6.827l85.333-122.88v-34.133h34.133v471.040c0 3.413 0 40.96 34.133 40.96s37.547-34.133 37.547-40.96v-242.347l283.307-44.373v-341.333h3.413zM341.333 521.387l20.48 27.307c-44.373 30.72-68.267 81.92-68.267 133.12 0 92.16 75.093 167.253 170.667 167.253s170.667-75.093 170.667-167.253c0-51.2-23.893-102.4-68.267-133.12l20.48-27.307c51.2 37.547 81.92 95.573 81.92 160.427 0 112.64-92.16 201.387-204.8 201.387s-204.8-88.747-204.8-201.387c0-64.853 30.72-122.88 81.92-160.427z"></path></svg>