<svg xmlns="http://www.w3.org/2000/svg" aria-hidden="true" 
class="svg-icon mb-icon-flip mb-state"
 width="27" height="27" viewBox="0 -64 1024 1024" style="fill: rgb(16, 112, 193);">
 <path d="M511.078 647.68c-107.861 0-198.758-90.863-198.758-198.758 0-107.861 90.863-198.758 198.758-198.758 107.861 0 198.758 90.863 198.758 198.758 0 107.861-90.863 198.758-198.758 198.758zM511.078 306.961c-0.408-0.004-0.89-0.007-1.372-0.007-77.667 0-140.629 62.962-140.629 140.629 0 0.482 0.002 0.964 0.007 1.445l-0.001-0.073c0 79.462 62.464 141.926 141.995 141.926s141.995-62.464 141.995-141.995c0.004-0.398 0.006-0.868 0.006-1.338 0-77.649-62.947-140.595-140.595-140.595-0.494 0-0.988 0.003-1.481 0.008l0.075-0.001zM512 38.4c226.202 0 409.6 183.398 409.6 409.6s-183.398 409.6-409.6 409.6-409.6-183.398-409.6-409.6 183.398-409.6 409.6-409.6zM512-21.333c-259.209 0-469.333 210.125-469.333 469.333s210.125 469.333 469.333 469.333 469.333-210.125 469.333-469.333-210.125-469.333-469.333-469.333z"></path></svg>